<svg width="192" height="49" viewBox="0 0 192 49" fill="none" xmlns="http://www.w3.org/2000/svg">
<ellipse cx="29.2938" cy="38.9993" rx="9.77769" ry="9.33325" fill="#0B9F84"/>
<ellipse cx="9.77769" cy="20.3332" rx="9.77769" ry="9.33325" fill="#17857E"/>
<path fill-rule="evenodd" clip-rule="evenodd" d="M23.7843 18.6367C23.7843 26.6029 17.1307 33.0608 8.92306 33.0608C6.20149 33.0608 3.39355 34.9651 3.39355 37.6867V40.4899C3.39355 43.416 5.76563 45.788 8.69172 45.788H11.6171C13.7511 45.788 15.2732 43.6796 15.2732 41.5456C15.2732 33.5794 21.9268 27.1215 30.1344 27.1215C32.844 27.1215 35.6357 25.2245 35.6357 22.5149V18.7472C35.6357 15.8746 33.307 13.5459 30.4344 13.5459H28.0411C25.5347 13.5459 23.7843 16.1303 23.7843 18.6367Z" fill="#3D83EC"/>
<path d="M57.168 40.432C55.464 40.432 53.88 40.12 52.416 39.496C50.976 38.872 49.728 38.008 48.672 36.904C47.64 35.776 46.884 34.468 46.404 32.98L50.472 31.216C51.12 32.752 52.056 33.964 53.28 34.852C54.504 35.716 55.884 36.148 57.42 36.148C58.284 36.148 59.028 36.016 59.652 35.752C60.3 35.464 60.792 35.08 61.128 34.6C61.488 34.12 61.668 33.544 61.668 32.872C61.668 32.08 61.428 31.432 60.948 30.928C60.492 30.4 59.796 29.992 58.86 29.704L53.712 28.048C51.624 27.4 50.052 26.428 48.996 25.132C47.94 23.836 47.412 22.312 47.412 20.56C47.412 19.024 47.784 17.668 48.528 16.492C49.296 15.316 50.352 14.404 51.696 13.756C53.064 13.084 54.624 12.748 56.376 12.748C57.984 12.748 59.46 13.036 60.804 13.612C62.148 14.164 63.3 14.944 64.26 15.952C65.244 16.936 65.976 18.1 66.456 19.444L62.424 21.244C61.896 19.9 61.104 18.868 60.048 18.148C58.992 17.404 57.768 17.032 56.376 17.032C55.56 17.032 54.84 17.176 54.216 17.464C53.592 17.728 53.1 18.112 52.74 18.616C52.404 19.096 52.236 19.672 52.236 20.344C52.236 21.088 52.476 21.748 52.956 22.324C53.436 22.876 54.168 23.308 55.152 23.62L60.084 25.168C62.22 25.864 63.816 26.824 64.872 28.048C65.952 29.272 66.492 30.784 66.492 32.584C66.492 34.12 66.096 35.476 65.304 36.652C64.512 37.828 63.42 38.752 62.028 39.424C60.636 40.096 59.016 40.432 57.168 40.432ZM70.5046 40V12.748H75.2206V30.604L73.4206 30.064L82.6366 20.416H88.5046L81.2686 28.3L88.6486 40H83.2486L76.8406 29.848L79.6486 29.272L73.7446 35.608L75.2206 32.728V40H70.5046ZM91.2819 40V20.416H95.9979V40H91.2819ZM91.2819 18.22V13.18H95.9979V18.22H91.2819ZM100.352 40V12.748H105.068V40H100.352ZM109.423 40V12.748H114.139V40H109.423ZM129.221 40.432C127.157 40.432 125.321 40 123.713 39.136C122.129 38.272 120.881 37.084 119.969 35.572C119.057 34.06 118.601 32.344 118.601 30.424V13.18H123.497V30.172C123.497 31.276 123.737 32.272 124.217 33.16C124.721 34.048 125.405 34.744 126.269 35.248C127.133 35.728 128.117 35.968 129.221 35.968C130.349 35.968 131.333 35.728 132.173 35.248C133.037 34.744 133.709 34.048 134.189 33.16C134.693 32.272 134.945 31.276 134.945 30.172V13.18H139.841V30.424C139.841 32.344 139.385 34.06 138.473 35.572C137.561 37.084 136.301 38.272 134.693 39.136C133.109 40 131.285 40.432 129.221 40.432ZM144.333 47.2V20.416H148.761V24.304L148.329 23.332C149.001 22.276 149.913 21.46 151.065 20.884C152.217 20.284 153.549 19.984 155.061 19.984C156.909 19.984 158.577 20.44 160.065 21.352C161.553 22.264 162.729 23.488 163.593 25.024C164.481 26.56 164.925 28.288 164.925 30.208C164.925 32.104 164.493 33.832 163.629 35.392C162.765 36.952 161.589 38.188 160.101 39.1C158.613 39.988 156.921 40.432 155.025 40.432C153.609 40.432 152.301 40.156 151.101 39.604C149.925 39.028 148.989 38.212 148.293 37.156L149.049 36.22V47.2H144.333ZM154.485 36.112C155.565 36.112 156.525 35.86 157.365 35.356C158.205 34.852 158.853 34.156 159.309 33.268C159.789 32.38 160.029 31.36 160.029 30.208C160.029 29.056 159.789 28.048 159.309 27.184C158.853 26.296 158.205 25.6 157.365 25.096C156.525 24.568 155.565 24.304 154.485 24.304C153.453 24.304 152.517 24.556 151.677 25.06C150.861 25.564 150.213 26.272 149.733 27.184C149.277 28.072 149.049 29.08 149.049 30.208C149.049 31.36 149.277 32.38 149.733 33.268C150.213 34.156 150.861 34.852 151.677 35.356C152.517 35.86 153.453 36.112 154.485 36.112Z" fill="#111111"/>
</svg>
